<?xml version="1.0" encoding="utf-8"?>
<!-- Generator: Adobe Illustrator 16.0.0, SVG Export Plug-In . SVG Version: 6.00 Build 0)  -->
<!DOCTYPE svg PUBLIC "-//W3C//DTD SVG 1.1//EN" "http://www.w3.org/Graphics/SVG/1.1/DTD/svg11.dtd">
<svg version="1.1" id="Layer_1" xmlns="http://www.w3.org/2000/svg" xmlns:xlink="http://www.w3.org/1999/xlink" x="0px" y="0px"
	 width="48px" height="48px" viewBox="0 0 48 48" enable-background="new 0 0 48 48" xml:space="preserve">
<path opacity="0.4" fill="#336595" d="M38.886,36.306v1.632c0,0.898,0.735,1.633,1.634,1.633h1.631c0.898,0,1.634-0.734,1.634-1.633
	v-2.906c0.996-0.896,1.632-2.187,1.632-3.623V15.083c0-5.714-5.846-6.53-13.061-6.53s-13.059,0.816-13.059,6.53v10.575
	c1.56,1.386,8.51-1.527,10.427,0.136c1.917,1.665-0.778,9.195,1.018,10.513 M39.703,33.04c-1.355,0-2.449-1.094-2.449-2.449
	c0-1.354,1.094-2.447,2.449-2.447s2.447,1.094,2.447,2.447C42.15,31.946,41.059,33.04,39.703,33.04z M42.15,23.245H22.561v-8.162
	H42.15V23.245z"/>
<path fill="#336595" d="M29.238,15.1c-0.326-0.963-1.239-1.649-2.317-1.649H8.964c-1.078,0-1.976,0.687-2.318,1.649L3.25,24.879
	v13.059c0,0.898,0.734,1.633,1.633,1.633h1.632c0.898,0,1.632-0.734,1.632-1.633v-1.632h19.59v1.632
	c0,0.898,0.734,1.633,1.632,1.633h1.633c0.897,0,1.633-0.734,1.633-1.633V24.879L29.238,15.1z M8.964,31.408
	c-1.355,0-2.449-1.093-2.449-2.449c0-1.354,1.094-2.448,2.449-2.448c1.354,0,2.448,1.094,2.448,2.448
	C11.413,30.315,10.319,31.408,8.964,31.408z M26.921,31.408c-1.355,0-2.449-1.093-2.449-2.449c0-1.354,1.094-2.448,2.449-2.448
	s2.448,1.094,2.448,2.448C29.369,30.315,28.276,31.408,26.921,31.408z M6.515,23.245l2.449-7.346h17.957l2.448,7.346H6.515z"/>
</svg>
