<?xml version="1.0" encoding="utf-8"?>
<!-- Generator: Adobe Illustrator 16.0.0, SVG Export Plug-In . SVG Version: 6.00 Build 0)  -->
<!DOCTYPE svg PUBLIC "-//W3C//DTD SVG 1.1//EN" "http://www.w3.org/Graphics/SVG/1.1/DTD/svg11.dtd">
<svg version="1.1" id="Layer_1" xmlns="http://www.w3.org/2000/svg" xmlns:xlink="http://www.w3.org/1999/xlink" x="0px" y="0px"
	 width="300px" height="300px" viewBox="0 0 300 300" enable-background="new 0 0 300 300" xml:space="preserve">
<g transform="translate(0.000000,300.000000) scale(0.100000,-0.100000)">
	<path fill="#FFFFFF" d="M1968.33,2815.884c-12.383-48.135-177.422-667.007-368.584-1378.022
		c-191.157-709.638-345.19-1291.377-342.437-1294.131c8.247-5.498,137.524-35.742,141.65-31.621
		c1.377,2.754,33.003,119.648,70.142,261.299l67.383,258.545h251.67h250.303v-61.885c0-116.895,42.627-158.154,165.039-158.154
		c134.766,0,165.029,38.506,165.029,204.922c0,81.133,5.508,112.764,22.002,126.514c11.006,9.629,34.375,42.637,50.889,72.9
		c30.254,55.01,30.254,70.127,34.375,673.877c2.754,529.478,1.387,627.124-17.871,691.763
		c-38.506,132.021-149.912,222.788-328.701,269.546c-43.994,12.383-82.51,24.761-86.631,28.882
		c-5.498,5.503,66.006,301.187,89.385,361.704c5.508,17.871-28.867,35.752-100.391,50.879
		C1988.955,2902.529,1988.955,2901.152,1968.33,2815.884z M2258.506,1787.182v-275.054h-242.041
		c-224.18,0-242.061,1.377-236.553,24.751c4.121,12.383,37.139,136.157,74.258,275.054l67.393,250.303h167.783h169.16V1787.182z
		 M2175.986,1161.435c22.002-12.383,49.502-39.892,61.885-61.885c59.141-115.527-17.871-247.549-144.404-247.549
		c-126.524,0-203.535,132.021-144.395,247.549C1988.955,1175.185,2093.467,1204.062,2175.986,1161.435z"/>
	<path fill="#FFFFFF" d="M818.594,2144.756c-23.379-13.755-50.884-39.883-59.136-55.01
		c-8.252-16.509-67.388-178.789-132.026-361.694l-115.522-332.817V952.393c0-295.684,5.498-453.838,15.132-475.84
		c20.625-44.014,67.383-64.639,149.902-64.639c122.397,0,165.029,41.26,165.029,158.154v61.885h189.785h188.418l118.271,440.088
		l118.276,440.088h-363.076c-339.688,0-363.071,1.377-356.196,24.751c4.131,12.383,41.26,122.407,81.143,243.428l74.268,220.044
		l349.316,6.875l347.949,6.875l16.494,55.015c34.385,111.396,66.025,103.145-361.694,103.145
		C890.107,2172.26,859.849,2169.507,818.594,2144.756z M979.502,1271.455c108.643-56.377,108.643-232.422,0-288.808
		c-151.279-78.389-305.313,75.645-226.919,226.924C792.461,1285.215,896.987,1314.082,979.502,1271.455z"/>
</g>
</svg>
