<?xml version="1.0" encoding="utf-8"?>
<!-- Generator: Adobe Illustrator 16.0.4, SVG Export Plug-In . SVG Version: 6.00 Build 0)  -->
<!DOCTYPE svg PUBLIC "-//W3C//DTD SVG 1.1//EN" "http://www.w3.org/Graphics/SVG/1.1/DTD/svg11.dtd">
<svg version="1.1" id="Layer_1" xmlns="http://www.w3.org/2000/svg" xmlns:xlink="http://www.w3.org/1999/xlink" x="0px" y="0px"
	 width="48px" height="48px" viewBox="0 0 48 48" enable-background="new 0 0 48 48" xml:space="preserve">
<path fill="#7EB100" d="M43.42,22.58l-18-18c-0.779-0.78-2.04-0.78-2.82,0l-18,18c-0.78,0.78-0.78,2.04,0,2.82l18,18
	c0.78,0.779,2.041,0.779,2.82,0l18-18C44.2,24.641,44.2,23.38,43.42,22.58z M28,29v-5h-8v6h-4v-8c0-1.1,0.9-2,2-2h10v-5l7,7L28,29z"
	/>
<path fill="none" d="M0,0h48v48H0V0z"/>
</svg>
