<?xml version="1.0" standalone="no"?>
<!DOCTYPE svg PUBLIC "-//W3C//DTD SVG 20010904//EN"
 "http://www.w3.org/TR/2001/REC-SVG-20010904/DTD/svg10.dtd">
<svg version="1.0" xmlns="http://www.w3.org/2000/svg"
 width="600.000000pt" height="537.000000pt" viewBox="0 0 600.000000 537.000000"
 preserveAspectRatio="xMidYMid meet">
<metadata>
Created by potrace 1.12, written by Peter Selinger 2001-2015
</metadata>
<g transform="translate(0.000000,537.000000) scale(0.100000,-0.100000)"
fill="#336595" stroke="none">
<path d="M2985 5351 c-93 -26 -164 -70 -240 -146 -312 -312 -161 -849 267
-950 301 -71 604 110 683 405 19 72 19 221 0 295 -24 92 -73 174 -150 250 -76
77 -158 126 -250 150 -79 20 -233 19 -310 -4z"/>
<path d="M1200 4843 c-88 -5 -312 -33 -352 -44 -56 -15 -95 -54 -137 -138 -65
-129 -155 -437 -221 -761 -12 -58 -23 -111 -26 -118 -2 -9 -23 2 -64 33 -140
108 -250 114 -250 14 0 -49 55 -127 170 -240 71 -68 117 -124 163 -199 l65
-103 -58 -38 c-32 -20 -77 -54 -100 -75 -81 -73 -75 -8 -76 -854 l-1 -755
-157 -596 c-167 -637 -174 -674 -140 -771 60 -177 362 -239 515 -106 64 56 72
80 274 842 l195 740 -9 395 c-5 218 -9 397 -8 397 2 1 302 -365 579 -705 l88
-108 -300 -620 c-164 -341 -304 -642 -311 -667 -18 -71 -6 -159 28 -214 54
-88 182 -152 304 -152 84 0 123 15 185 72 43 39 74 98 328 608 277 557 430
881 467 989 13 36 17 67 13 90 -8 46 -70 181 -118 255 -24 37 -30 53 -18 44
11 -7 314 -251 675 -542 l656 -529 -54 -22 c-118 -48 -211 -129 -261 -226 -21
-42 -27 -47 -66 -53 -94 -14 -203 -86 -255 -168 -13 -21 -30 -63 -38 -95 -8
-31 -17 -58 -19 -60 -2 -3 -37 -9 -78 -14 -225 -27 -362 -105 -462 -262 -20
-31 -36 -59 -36 -62 0 -3 835 -5 1855 -5 l1855 0 0 21 c0 39 -54 134 -107 187
-64 64 -156 110 -250 124 -38 5 -77 12 -89 14 -13 2 -28 19 -39 43 -9 22 -31
53 -49 69 -28 27 -107 62 -140 62 -10 0 -15 26 -19 97 -7 133 -33 202 -101
268 -67 65 -122 85 -258 92 l-107 6 -34 51 c-48 72 -147 170 -218 216 -81 52
-153 78 -247 89 -191 21 -365 -41 -504 -180 l-68 -67 -734 597 c-404 328 -735
599 -735 603 -1 4 16 36 37 70 206 337 509 895 599 1103 87 199 92 250 43 369
-76 183 -322 539 -543 787 -149 168 -175 180 -423 198 -125 10 -673 12 -814 4z
m132 -750 c-56 -60 -146 -155 -201 -213 l-99 -105 24 115 c13 63 33 156 45
207 l20 92 92 4 c51 1 121 4 156 5 l63 2 -100 -107z m637 -1145 c-62 -117
-123 -230 -134 -250 l-21 -38 -153 130 -153 131 63 27 c35 15 162 70 284 123
121 53 222 95 224 93 2 -2 -48 -99 -110 -216z"/>
</g>
</svg>
