<?xml version="1.0" standalone="no"?>
<!DOCTYPE svg PUBLIC "-//W3C//DTD SVG 20010904//EN"
 "http://www.w3.org/TR/2001/REC-SVG-20010904/DTD/svg10.dtd">
<svg version="1.0" xmlns="http://www.w3.org/2000/svg"
 width="700.000000pt" height="700.000000pt" viewBox="0 0 700.000000 700.000000"
 preserveAspectRatio="xMidYMid meet">
<metadata>
Created by potrace 1.13, written by Peter Selinger 2001-2015
</metadata>
<g transform="translate(0.000000,700.000000) scale(0.100000,-0.100000)"
fill="#336595" stroke="none">
<path d="M1130 5630 c0 -5 -11 -10 -24 -10 -58 0 -109 -38 -142 -105 -18 -38
-19 -67 -19 -685 l0 -645 24 -52 c14 -29 28 -53 31 -53 3 0 16 -9 28 -20 28
-26 102 -40 213 -40 l89 0 0 -1330 0 -1330 300 0 300 0 0 400 0 400 1570 0
1570 0 0 -400 0 -400 300 0 300 0 0 1330 0 1330 89 0 c111 0 185 14 213 40 12
11 25 20 28 20 3 0 17 24 31 53 l24 52 0 645 c0 618 -1 647 -19 685 -33 67
-84 105 -142 105 -13 0 -24 5 -24 10 0 7 -797 10 -2370 10 -1573 0 -2370 -3
-2370 -10z m1076 -287 c-3 -10 -91 -247 -194 -528 l-189 -510 -286 -3 c-158
-1 -287 1 -287 5 0 5 87 243 192 530 l193 523 288 0 c270 0 288 -1 283 -17z
m1180 -5 c-3 -13 -90 -251 -192 -530 l-187 -508 -289 0 c-158 0 -288 3 -288 8
0 4 87 242 192 529 l193 523 289 0 288 0 -6 -22z m1180 0 c-3 -13 -90 -251
-192 -530 l-187 -508 -289 0 c-158 0 -288 3 -288 8 0 4 87 242 192 529 l193
523 289 0 288 0 -6 -22z m1180 0 c-3 -13 -90 -251 -192 -530 l-187 -508 -290
0 c-271 0 -289 1 -282 18 4 9 89 240 190 512 101 272 186 503 190 513 7 16 30
17 292 17 l285 0 -6 -22z m-676 -1978 l0 -660 -1570 0 -1570 0 0 660 0 660
1570 0 1570 0 0 -660z"/>
</g>
</svg>
