<?xml version="1.0" standalone="no"?>
<!DOCTYPE svg PUBLIC "-//W3C//DTD SVG 20010904//EN"
 "http://www.w3.org/TR/2001/REC-SVG-20010904/DTD/svg10.dtd">
<svg version="1.0" xmlns="http://www.w3.org/2000/svg"
 width="300.000000pt" height="300.000000pt" viewBox="0 0 300.000000 300.000000"
 preserveAspectRatio="xMidYMid meet">
<metadata>
Created by potrace 1.13, written by Peter Selinger 2001-2015
</metadata>
<g transform="translate(0.000000,300.000000) scale(0.100000,-0.100000)"
fill="#FFFFFF" stroke="none">
<path d="M1421 2526 c-42 -15 -96 -76 -112 -125 -6 -20 -25 -64 -40 -98 -16
-34 -29 -65 -29 -68 0 -3 44 -4 97 -3 l98 3 27 50 c15 28 39 60 53 73 26 22
27 22 395 22 203 0 379 -4 392 -9 14 -5 29 -24 37 -47 8 -22 17 -41 21 -44 4
-3 20 -34 35 -70 15 -36 30 -67 34 -70 8 -7 51 -98 51 -110 0 -6 -126 -10
-340 -10 -187 0 -340 -4 -340 -9 0 -12 43 -115 50 -121 3 -3 12 -20 19 -37
l13 -33 163 0 162 0 40 39 c69 65 158 77 243 34 62 -33 105 -96 97 -146 -4
-30 25 -109 78 -211 l25 -49 0 244 0 244 -30 80 c-17 43 -42 99 -55 124 -41
77 -124 257 -130 282 -3 14 -22 35 -42 49 l-37 25 -470 2 c-356 1 -479 -1
-505 -11z"/>
<path d="M558 2098 c-28 -16 -46 -40 -77 -102 -58 -119 -136 -286 -151 -326
-7 -19 -18 -41 -24 -49 -7 -9 -12 -132 -14 -361 -3 -310 -1 -349 13 -364 14
-13 41 -16 165 -16 184 0 180 -3 180 121 l0 89 180 0 180 0 0 43 c0 57 25 152
54 202 12 22 33 67 46 100 13 33 26 62 29 65 9 7 41 79 41 90 0 6 -130 10
-345 10 -190 0 -345 3 -345 7 0 12 131 267 159 308 l27 40 389 2 c296 2 394 0
406 -10 8 -6 25 -38 38 -69 l23 -58 103 0 102 0 -65 131 c-49 99 -72 136 -96
150 -29 18 -57 19 -506 19 -467 0 -476 -1 -512 -22z m111 -614 c46 -18 97 -73
106 -115 24 -106 -112 -207 -235 -175 -56 15 -82 34 -116 88 -31 49 -30 84 4
133 51 75 153 104 241 69z"/>
<path d="M1431 1699 c-58 -11 -103 -56 -132 -128 -12 -31 -30 -69 -39 -86 -10
-16 -28 -55 -41 -85 -13 -30 -26 -57 -29 -60 -3 -3 -16 -28 -28 -57 -21 -50
-22 -63 -22 -422 0 -323 2 -372 16 -385 13 -13 42 -16 159 -16 176 0 175 0
175 127 l0 83 425 0 425 0 0 -85 c0 -124 2 -125 179 -125 118 0 142 3 160 18
22 17 22 18 19 367 -3 310 -5 353 -20 380 -10 17 -38 75 -64 130 -133 288
-141 301 -199 333 -27 15 -82 17 -485 19 -250 1 -475 -3 -499 -8z m859 -158
c20 -5 41 -39 107 -170 46 -90 83 -170 83 -177 0 -12 -97 -14 -575 -14 -368 0
-575 4 -575 10 0 5 39 82 86 171 72 133 92 163 118 175 24 10 107 13 381 13
193 -1 361 -4 375 -8z m-758 -482 c112 -57 112 -204 -2 -265 -74 -40 -159 -31
-224 22 -157 130 37 338 226 243z m958 6 c48 -25 100 -99 100 -142 -1 -42 -49
-105 -100 -130 -106 -54 -243 -2 -272 104 -34 123 145 233 272 168z"/>
</g>
</svg>
