<?xml version="1.0" encoding="utf-8"?>
<!-- Generator: Adobe Illustrator 16.0.0, SVG Export Plug-In . SVG Version: 6.00 Build 0)  -->
<!DOCTYPE svg PUBLIC "-//W3C//DTD SVG 1.1//EN" "http://www.w3.org/Graphics/SVG/1.1/DTD/svg11.dtd">
<svg version="1.1" id="Layer_1" xmlns="http://www.w3.org/2000/svg" xmlns:xlink="http://www.w3.org/1999/xlink" x="0px" y="0px"
	 width="47.99px" height="47.99px" viewBox="76.005 76.005 47.99 47.99" enable-background="new 76.005 76.005 47.99 47.99"
	 xml:space="preserve">
<g>
	<path fill="#336595" d="M120.854,101.752h-3.309c-0.913,0-1.654-0.739-1.654-1.654c0-0.913,0.741-1.651,1.654-1.651h3.309
		c0.912,0,1.653,0.74,1.653,1.651C122.508,101.013,121.767,101.752,120.854,101.752z M114.356,90.743
		c-0.646,0.646-1.693,0.646-2.34,0c-0.646-0.645-0.646-1.693,0-2.338l2.34-2.339c0.646-0.646,1.692-0.646,2.338,0
		c0.646,0.646,0.646,1.693,0,2.339L114.356,90.743z M111.918,103.65L111.918,103.65c1.446,1.725,2.322,3.944,2.322,6.371
		c0,5.479-4.444,9.924-9.924,9.924c-2.297,0-10.588,0-13.232,0c-7.306,0-13.23-5.924-13.23-13.231
		c0-7.307,5.924-13.231,13.23-13.231c1.3,0,2.556,0.192,3.741,0.541c1.815-2.338,4.646-3.849,7.836-3.849
		c5.48,0,9.924,4.444,9.924,9.923C112.585,101.351,112.341,102.547,111.918,103.65z M81.161,106.714
		c0,5.481,4.441,9.923,9.922,9.923c2.991,0,10.735,0,13.231,0c3.654,0,6.615-2.962,6.615-6.615c0-3.652-2.961-6.616-6.615-6.616
		c-1.323,0-2.55,0.399-3.583,1.069c-1.019-4.397-4.941-7.683-9.648-7.683C85.603,96.792,81.161,101.233,81.161,106.714z
		 M102.66,93.483c-1.83,0-3.485,0.743-4.682,1.943c1.935,1.188,3.543,2.856,4.656,4.841c0.549-0.093,1.105-0.169,1.681-0.169
		c1.758,0,3.407,0.462,4.839,1.263l0,0c0.079-0.408,0.123-0.83,0.123-1.263C109.276,96.446,106.314,93.483,102.66,93.483z
		 M102.66,86.867c-0.912,0-1.652-0.74-1.652-1.653v-3.308c0-0.914,0.741-1.654,1.652-1.654c0.914,0,1.654,0.74,1.654,1.654v3.308
		C104.314,86.127,103.575,86.867,102.66,86.867z M90.966,90.743l-2.337-2.338c-0.646-0.646-0.646-1.693,0-2.339
		c0.646-0.646,1.693-0.646,2.337,0l2.34,2.339c0.645,0.645,0.645,1.693,0,2.338C92.66,91.389,91.612,91.389,90.966,90.743z"/>
</g>
</svg>
