<?xml version="1.0" encoding="utf-8"?>
<!-- Generator: Adobe Illustrator 16.0.0, SVG Export Plug-In . SVG Version: 6.00 Build 0)  -->
<!DOCTYPE svg PUBLIC "-//W3C//DTD SVG 1.1//EN" "http://www.w3.org/Graphics/SVG/1.1/DTD/svg11.dtd">
<svg version="1.1" id="Layer_1" xmlns="http://www.w3.org/2000/svg" xmlns:xlink="http://www.w3.org/1999/xlink" x="0px" y="0px"
	 width="48px" height="48px" viewBox="0 0 48 48" enable-background="new 0 0 48 48" xml:space="preserve">
<path fill="#4388C8" stroke="#FFFFFF" stroke-width="1.9842" stroke-miterlimit="10" d="M40.07,21.573
	c-0.297,5.333-2.536,9.818-5.797,13.871c-2.672,3.32-5.842,6.101-9.371,8.476c-0.307,0.205-0.551,0.381-0.961,0.097
	c-5.191-3.6-9.681-7.865-12.711-13.484c-1.804-3.346-2.741-6.91-2.43-10.757c0.533-6.592,5.493-12.23,12.101-13.705
	c8.47-1.89,16.769,3.328,18.689,11.792C39.865,19.071,39.916,20.334,40.07,21.573z"/>
<path fill="#FFFFFF" d="M15.963,31.396c0.38-0.653,0.731-1.264,1.087-1.871c0.539-0.926,1.083-1.844,1.617-2.771
	c0.081-0.139,0.164-0.198,0.33-0.194c0.424,0.014,0.848,0.004,1.324,0.004c-0.109,0.268-0.207,0.508-0.307,0.746
	c-0.546,1.295-1.095,2.586-1.637,3.881c-0.063,0.154-0.144,0.211-0.313,0.209C17.383,31.387,16.702,31.396,15.963,31.396z"/>
<path fill="#FFFFFF" d="M32.749,31.396c-0.702,0-1.399,0.006-2.099-0.013c-0.088-0.001-0.213-0.108-0.25-0.198
	c-0.488-1.127-0.963-2.26-1.439-3.391c-0.168-0.396-0.333-0.795-0.518-1.23c0.515,0,0.988-0.002,1.461,0.006
	c0.048,0,0.111,0.052,0.14,0.097c0.908,1.56,1.813,3.114,2.722,4.672C32.768,31.344,32.764,31.354,32.749,31.396z"/>
<path fill="#FFFFFF" d="M23.328,30.113c0.706,0,1.393,0,2.109,0c0.039,0.416,0.076,0.83,0.113,1.266c-0.781,0-1.539,0-2.332,0
	C23.256,30.96,23.293,30.544,23.328,30.113z"/>
<path fill="#FFFFFF" d="M23.487,28.066c0.61,0,1.188,0,1.792,0c0.021,0.299,0.045,0.584,0.07,0.895c-0.646,0-1.27,0-1.927,0
	C23.444,28.668,23.465,28.381,23.487,28.066z"/>
<path fill="#FFFFFF" d="M25.157,26.581c0.016,0.229,0.03,0.435,0.046,0.655c-0.544,0-1.072,0-1.63,0
	c0.012-0.213,0.024-0.424,0.038-0.655C24.128,26.581,24.625,26.581,25.157,26.581z"/>
<path fill="#FFFFFF" d="M24.071,13.319c2.811-0.112,5.103,2.03,5.279,4.763c0.186,2.902-2.004,5.355-4.9,5.451
	c-2.841,0.095-5.083-1.992-5.271-4.694C18.97,15.829,21.12,13.464,24.071,13.319z M22.055,21.998
	c0.778-0.698,1.526-1.368,2.274-2.04c0.771,0.699,1.493,1.354,2.241,2.032c0.486-0.536,0.957-1.056,1.441-1.591
	c-0.719-0.654-1.395-1.27-2.087-1.902c0.702-0.643,1.376-1.26,2.056-1.88c-0.494-0.542-0.951-1.046-1.439-1.585
	c-0.745,0.675-1.475,1.335-2.22,2.009c-0.745-0.676-1.474-1.337-2.232-2.025c-0.487,0.538-0.957,1.058-1.44,1.591
	c0.709,0.649,1.383,1.266,2.068,1.893c-0.708,0.647-1.394,1.274-2.096,1.916C21.107,20.952,21.564,21.457,22.055,21.998z"/>
</svg>
